# xmcd
#
# Track frame offsets: 
#        150
#        15681
#        27852
#        45016
#        58857
#        72852
#        89845
#        101646
#        111198
#        126175
#        137426
#
# Disc length: 1996 seconds
#
# Revision: 0
# Processed by: cddbd v1.5.2PL0 Copyright (c) Steve Scherf et al.
# Submitted via: ExactAudioCopy v1.0b1
#
DISCID=9007ca0b
DTITLE=Otis Redding - The Soul Album
DYEAR=1966
DGENRE=R&B
TTITLE0=Just One More Day
TTITLE1=It's Growing
TTITLE2=Cigarettes And Coffee
TTITLE3=Chain Gang
TTITLE4=Nobody Knows You (When You're Down And Out)
TTITLE5=Good To Me
TTITLE6=Scratch My Back
TTITLE7=Treat Her Right
TTITLE8=Everybody Makes A Mistake
TTITLE9=Any Ole Way
TTITLE10=634-5789 (Soulsville, U.S.A.)
EXTD=
EXTT0=
EXTT1=
EXTT2=
EXTT3=
EXTT4=
EXTT5=
EXTT6=
EXTT7=
EXTT8=
EXTT9=
EXTT10=
PLAYORDER=
